<svg xmlns="http://www.w3.org/2000/svg" viewBox="0 0 1100 280"><defs><linearGradient id="b1" x1="0%" y1="0%" x2="0%" y2="100%"><stop offset="0%" stop-color="#fafafa"/><stop offset="100%" stop-color="#ececf1"/></linearGradient><marker id="arr" viewBox="0 0 10 10" refX="9" refY="5" markerWidth="7" markerHeight="7" orient="auto"><path d="M0,0 L10,5 L0,10 Z" fill="#64748b"/></marker></defs><rect width="1100" height="280" fill="#0b1020"/><g font-family="Inter,system-ui,sans-serif"><rect x="40" y="80" width="200" height="120" rx="14" fill="url(#b1)"/><text x="140" y="120" text-anchor="middle" font-size="13" font-weight="600" fill="#475569">USER</text><text x="140" y="148" text-anchor="middle" font-size="20" font-weight="700" fill="#0f172a">Browser</text><text x="140" y="172" text-anchor="middle" font-size="12" fill="#64748b">React 18 · Tailwind</text><rect x="290" y="80" width="200" height="120" rx="14" fill="url(#b1)"/><text x="390" y="120" text-anchor="middle" font-size="13" font-weight="600" fill="#475569">FRONTEND</text><text x="390" y="148" text-anchor="middle" font-size="20" font-weight="700" fill="#0f172a">Next.js 14</text><text x="390" y="172" text-anchor="middle" font-size="12" fill="#64748b">App Router on Vercel</text><rect x="540" y="80" width="200" height="120" rx="14" fill="url(#b1)"/><text x="640" y="120" text-anchor="middle" font-size="13" font-weight="600" fill="#475569">API</text><text x="640" y="148" text-anchor="middle" font-size="20" font-weight="700" fill="#0f172a">No backend</text><text x="640" y="172" text-anchor="middle" font-size="12" fill="#64748b">frontend only</text><rect x="790" y="80" width="200" height="120" rx="14" fill="url(#b1)"/><text x="890" y="120" text-anchor="middle" font-size="13" font-weight="600" fill="#475569">DATA</text><text x="890" y="148" text-anchor="middle" font-size="20" font-weight="700" fill="#0f172a">none</text><text x="890" y="172" text-anchor="middle" font-size="12" fill="#64748b">static</text></g><line x1="240" y1="140" x2="288" y2="140" stroke="#64748b" stroke-width="2.5" marker-end="url(#arr)"/><line x1="490" y1="140" x2="538" y2="140" stroke="#64748b" stroke-width="2.5" marker-end="url(#arr)"/><line x1="740" y1="140" x2="788" y2="140" stroke="#64748b" stroke-width="2.5" marker-end="url(#arr)"/><text x="550" y="50" text-anchor="middle" font-family="Inter,system-ui,sans-serif" font-size="14" font-weight="600" fill="rgba(255,255,255,0.55)" letter-spacing="2">REQUEST FLOW</text></svg>