<svg xmlns="http://www.w3.org/2000/svg" viewBox="0 0 1200 360"><defs><linearGradient id="g" x1="0%" y1="0%" x2="100%" y2="100%"><stop offset="0%" stop-color="#0b1020"/><stop offset="55%" stop-color="#1d1147"/><stop offset="100%" stop-color="#3b1d6b"/></linearGradient><radialGradient id="glow" cx="50%" cy="40%" r="60%"><stop offset="0%" stop-color="rgba(139,92,246,0.55)"/><stop offset="100%" stop-color="rgba(139,92,246,0)"/></radialGradient><pattern id="dots" x="0" y="0" width="40" height="40" patternUnits="userSpaceOnUse"><circle cx="2" cy="2" r="1.2" fill="rgba(255,255,255,0.07)"/></pattern></defs><rect width="1200" height="360" fill="url(#g)"/><rect width="1200" height="360" fill="url(#dots)"/><rect width="1200" height="360" fill="url(#glow)"/><path d="M0,260 C280,180 520,300 800,200 C1000,140 1100,180 1200,160 L1200,360 L0,360 Z" fill="rgba(56,189,248,0.08)"/><path d="M0,300 C260,260 540,340 820,260 C1020,210 1120,240 1200,220 L1200,360 L0,360 Z" fill="rgba(236,72,153,0.06)"/><text x="600" y="190" font-family="Inter,system-ui,-apple-system,sans-serif" font-size="40" font-weight="800" fill="#ffffff" text-anchor="middle" letter-spacing="-1.5">SaaS Toolkit Platform for Solo Founders</text><text x="600" y="240" font-family="Inter,system-ui,sans-serif" font-size="18" font-weight="500" fill="rgba(255,255,255,0.72)" text-anchor="middle" letter-spacing="0.5">Built autonomously by MVP Factory</text><g transform="translate(600 280)"><circle cx="-100" cy="0" r="3" fill="#38bdf8"/><text x="-86" y="4" font-family="Inter,system-ui,sans-serif" font-size="13" font-weight="500" fill="rgba(255,255,255,0.6)">Production</text><circle cx="0" cy="0" r="3" fill="#a855f7"/><text x="14" y="4" font-family="Inter,system-ui,sans-serif" font-size="13" font-weight="500" fill="rgba(255,255,255,0.6)">Open Source</text><circle cx="100" cy="0" r="3" fill="#ec4899"/><text x="114" y="4" font-family="Inter,system-ui,sans-serif" font-size="13" font-weight="500" fill="rgba(255,255,255,0.6)">MIT</text></g></svg>